<?xml version="1.0" encoding="UTF-8" standalone="no"?>
<!-- Created with Inkscape (http://www.inkscape.org/) -->

<svg
   width="600"
   height="800"
   viewBox="0 0 600 800"
   version="1.1"
   id="svg5"
   inkscape:version="1.2.2 (b0a8486541, 2022-12-01)"
   sodipodi:docname="template.svg"
   xml:space="preserve"
   xmlns:inkscape="http://www.inkscape.org/namespaces/inkscape"
   xmlns:sodipodi="http://sodipodi.sourceforge.net/DTD/sodipodi-0.dtd"
   xmlns="http://www.w3.org/2000/svg"
   xmlns:svg="http://www.w3.org/2000/svg"><sodipodi:namedview
     id="namedview7"
     pagecolor="#ffffff"
     bordercolor="#666666"
     borderopacity="1.0"
     inkscape:showpageshadow="2"
     inkscape:pageopacity="0.0"
     inkscape:pagecheckerboard="0"
     inkscape:deskcolor="#d1d1d1"
     inkscape:document-units="mm"
     showgrid="false"
     inkscape:zoom="0.99947329"
     inkscape:cx="156.08221"
     inkscape:cy="413.21765"
     inkscape:window-width="1920"
     inkscape:window-height="979"
     inkscape:window-x="0"
     inkscape:window-y="32"
     inkscape:window-maximized="1"
     inkscape:current-layer="foreground" /><defs
     id="defs2" /><g
     inkscape:label="Background"
     inkscape:groupmode="layer"
     id="background"
     sodipodi:insensitive="true"><rect
       style="fill:#ffffff;stroke:#4c4c4c;stroke-width:0.470489"
       id="rect335"
       width="599.52954"
       height="799.52954"
       x="0.2352445"
       y="0.2352445" /></g><g
     inkscape:groupmode="layer"
     id="foreground"
     inkscape:label="Foreground"><text
       xml:space="preserve"
       style="font-style:normal;font-weight:normal;font-size:170.317px;line-height:1.25;font-family:sans-serif;fill:#000000;fill-opacity:1;stroke:none;stroke-width:4.25794"
       x="78.076706"
       y="344.48624"
       class="centered"
       id="text1089"><tspan
         sodipodi:role="line"
         x="78.076706"
         y="344.48624"
         style="font-style:normal;font-variant:normal;font-weight:normal;font-stretch:semi-condensed;font-family:'Barlow Semi Condensed Thin';-inkscape-font-specification:'Barlow Semi Condensed Thin,  weight=250 Semi-Condensed';stroke-width:4.25794"
         id="tspan1087"><tspan
           id="hour">HH</tspan><tspan
           style="fill:#b3b3b3"
           id="colon">:</tspan><tspan
           id="minute">MM</tspan></tspan></text><text
       xml:space="preserve"
       style="font-style:normal;font-weight:normal;font-size:72.5506px;line-height:1.25;font-family:sans-serif;fill:#000000;fill-opacity:1;stroke:none;stroke-width:1.81376"
       x="168.7832"
       y="180.75075"
       class="centered"
       id="text1092"><tspan
         sodipodi:role="line"
         x="168.7832"
         y="180.75075"
         style="font-style:normal;font-variant:normal;font-weight:bold;font-stretch:normal;font-family:'Barlow Semi Condensed';-inkscape-font-specification:'Barlow Semi Condensed,  Bold';stroke-width:1.81376"
         id="weekday">Weekday</tspan></text><text
       xml:space="preserve"
       style="font-style:normal;font-weight:normal;font-size:40px;line-height:1.25;font-family:sans-serif;fill:#000000;fill-opacity:1;stroke:none"
       x="243.23997"
       y="412.80719"
       class="centered"
       id="text1095"><tspan
         sodipodi:role="line"
         id="date"
         x="243.23997"
         y="412.80719"
         style="font-style:normal;font-variant:normal;font-weight:normal;font-stretch:normal;font-family:'Barlow Semi Condensed ExLight';-inkscape-font-specification:'Barlow Semi Condensed ExLight'">Month 1</tspan></text><g
       transform="translate(97.077894)"
       class="centered"
       id="g1102"><g
         id="repo_icon"
         transform="matrix(2.0092184,0,0,2.0092184,117.87716,546.10769)"
         style="fill:#b3b3b3"><path
           d="M 3,2.75 A 2.75,2.75 0 0 1 5.75,0 h 14.5 A 0.75,0.75 0 0 1 21,0.75 v 20.5 A 0.75,0.75 0 0 1 20.25,22 h -6 a 0.75,0.75 0 0 1 0,-1.5 h 5.25 v -4 H 6 A 1.5,1.5 0 0 0 4.5,18 v 0.75 c 0,0.716 0.43,1.334 1.05,1.605 A 0.75,0.75 0 0 1 4.95,21.729 3.251,3.251 0 0 1 3,18.75 Z M 19.5,1.5 H 5.75 C 5.06,1.5 4.5,2.06 4.5,2.75 V 15.401 A 2.989,2.989 0 0 1 6,15 h 13.5 z"
           id="path507"
           style="fill:#b3b3b3" /><path
           d="M 7,18.25 A 0.25,0.25 0 0 1 7.25,18 h 5 a 0.25,0.25 0 0 1 0.25,0.25 v 5.01 a 0.25,0.25 0 0 1 -0.397,0.201 L 9.897,21.857 a 0.25,0.25 0 0 0 -0.294,0 L 7.397,23.46 A 0.25,0.25 0 0 1 7,23.26 Z"
           id="path509"
           style="fill:#b3b3b3" /></g><text
         xml:space="preserve"
         style="font-style:normal;font-weight:normal;font-size:32px;line-height:1.25;font-family:sans-serif;fill:#000000;fill-opacity:1;stroke:none"
         x="177.17139"
         y="578.71484"
         id="repo_textbox"><tspan
           sodipodi:role="line"
           id="repo_text"
           x="177.17139"
           y="578.71484"
           style="font-style:normal;font-variant:normal;font-weight:normal;font-stretch:normal;font-size:32px;font-family:'Barlow Semi Condensed Light';-inkscape-font-specification:'Barlow Semi Condensed Light, '">org/repo</tspan></text></g><g
       transform="translate(-0.10383034)"
       class="centered"
       id="g1121"><path
         d="m 120.51708,653.21827 c 7.73182,0 14,6.26818 14,14 0,7.73182 -6.26818,14 -14,14 -7.73182,0 -14,-6.26818 -14,-14 0,-7.73182 6.26818,-14 14,-14 z m -12.0909,14 a 12.090909,12.090909 0 0 0 12.0909,12.09091 12.090909,12.090909 0 0 0 12.09091,-12.09091 12.090909,12.090909 0 0 0 -12.09091,-12.09091 12.090909,12.090909 0 0 0 -12.0909,12.09091 z m 12.0909,2.54545 a 2.5454545,2.5454545 0 1 1 -0.001,-5.08963 2.5454545,2.5454545 0 0 1 0.001,5.08963 z"
         id="issue_icon"
         style="fill:#b3b3b3;stroke-width:1.27273" /><text
         xml:space="preserve"
         style="font-style:normal;font-variant:normal;font-weight:normal;font-stretch:normal;font-size:21.3333px;line-height:1.25;font-family:'Barlow Semi Condensed';-inkscape-font-specification:'Barlow Semi Condensed, ';fill:#000000;fill-opacity:1;stroke:none"
         x="142.10896"
         y="674.77026"
         id="issue_textbox"><tspan
           sodipodi:role="line"
           id="issue_text"
           x="142.10896"
           y="674.77026"
           style="font-style:normal;font-variant:normal;font-weight:normal;font-stretch:normal;font-size:21.3333px;font-family:'Barlow Semi Condensed Light';-inkscape-font-specification:'Barlow Semi Condensed Light, '">12</tspan></text><g
         id="pr_icon"
         transform="matrix(1.3333333,0,0,1.3333333,215.98201,651.21827)"
         style="fill:#b3b3b3"><path
           d="m 16,19.25 a 3.25,3.25 0 1 1 6.5,0 3.25,3.25 0 0 1 -6.5,0 z m -14.5,0 a 3.25,3.25 0 1 1 6.5,0 3.25,3.25 0 0 1 -6.5,0 z m 0,-14.5 a 3.25,3.25 0 1 1 6.5,0 3.25,3.25 0 0 1 -6.5,0 z M 4.75,3 A 1.7505001,1.7505001 0 1 0 4.751,6.501 1.7505001,1.7505001 0 0 0 4.75,3 Z m 0,14.5 A 1.7505001,1.7505001 0 1 0 4.751,21.001 1.7505001,1.7505001 0 0 0 4.75,17.5 Z m 14.5,0 A 1.7505001,1.7505001 0 1 0 19.251,21.001 1.7505001,1.7505001 0 0 0 19.25,17.5 Z"
           id="path579"
           style="fill:#b3b3b3" /><path
           d="m 13.405,1.72 a 0.75,0.75 0 0 1 0,1.06 L 12.185,4 H 16.25 A 3.75,3.75 0 0 1 20,7.75 v 8.75 a 0.75,0.75 0 0 1 -1.5,0 V 7.75 A 2.25,2.25 0 0 0 16.25,5.5 h -4.064 l 1.22,1.22 a 0.75,0.75 0 0 1 -1.061,1.06 l -2.5,-2.5 a 0.75,0.75 0 0 1 0,-1.06 l 2.5,-2.5 a 0.75,0.75 0 0 1 1.06,0 z M 4.75,7.25 A 0.75,0.75 0 0 1 5.5,8 v 8 A 0.75,0.75 0 0 1 4,16 V 8 A 0.75,0.75 0 0 1 4.75,7.25 Z"
           id="path581"
           style="fill:#b3b3b3" /></g><text
         xml:space="preserve"
         style="font-style:normal;font-weight:normal;font-size:21.3333px;line-height:1.25;font-family:sans-serif;fill:#000000;fill-opacity:1;stroke:none"
         x="254.36716"
         y="674.59961"
         id="text986"><tspan
           sodipodi:role="line"
           id="pr_text"
           x="254.36716"
           y="674.59961"
           style="font-style:normal;font-variant:normal;font-weight:normal;font-stretch:normal;font-size:21.3333px;font-family:'Barlow Semi Condensed Light';-inkscape-font-specification:'Barlow Semi Condensed Light, '">34</tspan></text><path
         d="m 343.44745,653.21826 a 0.98135579,0.98135579 0 0 1 0.8806,0.54695 l 4.00132,8.10861 8.94865,1.30063 a 0.98135579,0.98135579 0 0 1 0.54302,1.67353 l -6.47433,6.31078 1.5283,8.91201 a 0.98266427,0.98266427 0 0 1 -1.42362,1.03501 l -8.00394,-4.20806 -8.00394,4.20806 a 0.98135579,0.98135579 0 0 1 -1.42363,-1.0337 l 1.5283,-8.91332 -6.47433,-6.31078 a 0.98135579,0.98135579 0 0 1 0.54432,-1.67484 l 8.94735,-1.29932 4.00262,-8.10861 a 0.98135579,0.98135579 0 0 1 0.87931,-0.54695 z m 0,3.19922 -3.3497,6.78706 a 0.98135579,0.98135579 0 0 1 -0.73928,0.53647 l -7.49102,1.08866 5.42101,5.28361 a 0.97873884,0.97873884 0 0 1 0.28132,0.86883 l -1.27969,7.46092 6.7007,-3.52241 a 0.98135579,0.98135579 0 0 1 0.91332,0 l 6.69938,3.52241 -1.27839,-7.46092 a 0.97873884,0.97873884 0 0 1 0.28134,-0.86883 l 5.42101,-5.28361 -7.49102,-1.08735 a 0.98135579,0.98135579 0 0 1 -0.73929,-0.53647 l -3.34969,-6.78968 z"
         id="star_icon"
         style="fill:#b3b3b3;stroke-width:1.30847" /><text
         xml:space="preserve"
         style="font-style:normal;font-weight:normal;font-size:21.3333px;line-height:1.25;font-family:sans-serif;fill:#000000;fill-opacity:1;stroke:none"
         x="366.17645"
         y="674.68494"
         id="star_textbox"><tspan
           sodipodi:role="line"
           x="366.17645"
           y="674.68494"
           style="font-style:normal;font-variant:normal;font-weight:normal;font-stretch:normal;font-size:21.3333px;font-family:'Barlow Semi Condensed Light';-inkscape-font-specification:'Barlow Semi Condensed Light, '"
           id="star_text">56</tspan></text><g
         id="fork_icon"
         transform="matrix(1.3333333,0,0,1.3333333,438.91187,651.21827)"
         style="fill:#b3b3b3"><path
           d="m 8.75,19.25 a 3.25,3.25 0 1 1 6.5,0 3.25,3.25 0 0 1 -6.5,0 z M 15,4.75 a 3.25,3.25 0 1 1 6.5,0 3.25,3.25 0 0 1 -6.5,0 z m -12.5,0 a 3.25,3.25 0 1 1 6.5,0 3.25,3.25 0 0 1 -6.5,0 z M 5.75,6.5 A 1.7505001,1.7505001 0 1 0 5.749,2.999 1.7505001,1.7505001 0 0 0 5.75,6.5 Z M 12,21 A 1.7505001,1.7505001 0 1 0 11.999,17.499 1.7505001,1.7505001 0 0 0 12,21 Z M 18.25,6.5 A 1.7505001,1.7505001 0 1 0 18.249,2.999 1.7505001,1.7505001 0 0 0 18.25,6.5 Z"
           id="path553"
           style="fill:#b3b3b3" /><path
           d="m 6.5,7.75 v 1 A 2.25,2.25 0 0 0 8.75,11 h 6.5 A 2.25,2.25 0 0 0 17.5,8.75 v -1 H 19 v 1 A 3.75,3.75 0 0 1 15.25,12.5 H 8.75 A 3.75,3.75 0 0 1 5,8.75 v -1 z"
           id="path555"
           style="fill:#b3b3b3" /><path
           d="m 11.25,16.25 v -5 h 1.5 v 5 z"
           id="path557"
           style="fill:#b3b3b3" /></g><text
         xml:space="preserve"
         style="font-style:normal;font-weight:normal;font-size:21.3333px;line-height:1.25;font-family:sans-serif;fill:#000000;fill-opacity:1;stroke:none"
         x="476.28262"
         y="674.69556"
         id="fork_textbox"><tspan
           sodipodi:role="line"
           x="476.28262"
           y="674.69556"
           style="font-style:normal;font-variant:normal;font-weight:normal;font-stretch:normal;font-size:21.3333px;font-family:'Barlow Semi Condensed Light';-inkscape-font-specification:'Barlow Semi Condensed Light, '"
           id="fork_text">78</tspan></text></g></g></svg>
